<?xml version="1.0" encoding="UTF-8"?>
<svg id="Capa_1" xmlns="http://www.w3.org/2000/svg" version="1.1" viewBox="0 0 221.85 64">
  <!-- Generator: Adobe Illustrator 29.8.1, SVG Export Plug-In . SVG Version: 2.1.1 Build 2)  -->
  <defs>
    <style>
      .st0 {
        fill: #00aeef;
      }

      .st1 {
        fill: #0058a0;
      }
    </style>
  </defs>
  <polygon class="st0" points="136.26 40.15 141.11 40.15 145.35 20.25 145.26 20.36 141.14 9.87 130.89 9.87 138.46 29.04 136.26 40.15"/>
  <g>
    <path class="st1" d="M12.63,40.76c-1.73,0-3.39-.14-4.97-.41-1.59-.27-3.03-.66-4.33-1.17-1.3-.5-2.41-1.06-3.33-1.67l3.37-6.4c1.04.63,2.11,1.18,3.22,1.62,1.11.45,2.24.79,3.4,1.02,1.15.23,2.31.35,3.46.35s2.03-.11,2.81-.32c.78-.22,1.37-.53,1.77-.93.4-.4.61-.88.61-1.43,0-.61-.27-1.09-.8-1.45-.53-.36-1.23-.67-2.1-.93-.87-.26-1.82-.53-2.88-.8-1.05-.27-2.11-.61-3.16-.99-1.05-.39-2.01-.88-2.88-1.47-.87-.59-1.56-1.35-2.1-2.27-.53-.92-.8-2.06-.8-3.42,0-2.19.59-4.09,1.77-5.71,1.18-1.61,2.86-2.87,5.04-3.76,2.18-.89,4.75-1.34,7.72-1.34,2.16,0,4.18.22,6.06.67,1.87.45,3.49,1.09,4.84,1.92l-3.11,6.36c-1.18-.75-2.49-1.32-3.91-1.71-1.43-.39-2.89-.58-4.39-.58-1.15,0-2.14.13-2.96.39-.82.26-1.44.61-1.86,1.06-.42.45-.63.95-.63,1.49,0,.58.26,1.05.78,1.43.52.38,1.22.69,2.1.95.88.26,1.84.53,2.9.8,1.05.27,2.1.59,3.14.95,1.04.36,2,.84,2.9,1.43.89.59,1.6,1.33,2.12,2.23.52.89.78,2,.78,3.33,0,2.16-.59,4.05-1.77,5.67-1.18,1.62-2.87,2.87-5.06,3.76-2.19.89-4.77,1.34-7.74,1.34Z"/>
    <path class="st1" d="M42.17,40.54c-2.51,0-4.69-.44-6.55-1.32-1.86-.88-3.31-2.12-4.35-3.72-1.04-1.6-1.56-3.48-1.56-5.64,0-2.6.59-4.91,1.77-6.94,1.18-2.03,2.84-3.64,4.97-4.82,2.13-1.18,4.61-1.77,7.44-1.77,2.39,0,4.45.43,6.16,1.3,1.72.86,3.04,2.07,3.98,3.61.94,1.54,1.41,3.34,1.41,5.39,0,.69-.04,1.36-.13,1.99-.09.63-.2,1.25-.35,1.86h-18.82l.78-4.33h14.23l-3.42,1.25c.23-1.12.19-2.07-.11-2.83-.3-.76-.81-1.36-1.51-1.77-.71-.42-1.58-.63-2.62-.63-1.33,0-2.42.33-3.27.99-.85.66-1.49,1.56-1.9,2.7-.42,1.14-.63,2.37-.63,3.7,0,1.62.45,2.81,1.34,3.57.89.76,2.23,1.15,4.02,1.15,1.04,0,2.05-.17,3.05-.5.99-.33,1.87-.8,2.62-1.41l3.42,5.15c-1.47,1.1-3.06,1.87-4.78,2.34-1.72.46-3.45.69-5.21.69Z"/>
    <path class="st1" d="M75.87,16.32c1.99,0,3.68.41,5.06,1.23,1.38.82,2.37,2.03,2.96,3.63.59,1.6.64,3.6.15,5.99l-2.6,12.98h-8.22l2.42-12.2c.32-1.5.22-2.65-.28-3.46-.5-.81-1.43-1.21-2.79-1.21s-2.55.43-3.5,1.3-1.62,2.19-1.99,3.98l-2.34,11.59h-8.22l4.67-23.44h7.79l-1.34,6.57-1.04-1.9c1.12-1.76,2.52-3.04,4.17-3.85,1.66-.81,3.35-1.21,5.08-1.21Z"/>
    <path class="st1" d="M99.88,40.54c-2.51,0-4.69-.45-6.53-1.34-1.85-.89-3.28-2.14-4.3-3.74-1.02-1.6-1.54-3.47-1.54-5.6,0-2.6.62-4.91,1.86-6.94,1.24-2.03,2.96-3.64,5.15-4.82,2.19-1.18,4.7-1.77,7.53-1.77,2.65,0,4.95.56,6.9,1.69,1.95,1.12,3.35,2.68,4.22,4.67l-7.01,3.33c-.43-1.1-1.05-1.89-1.84-2.38-.79-.49-1.69-.74-2.7-.74-1.1,0-2.08.28-2.96.84-.88.56-1.56,1.32-2.05,2.27s-.73,2.08-.73,3.37.39,2.45,1.17,3.29c.78.84,1.92,1.25,3.42,1.25,1.07,0,2.03-.24,2.88-.71.85-.48,1.58-1.26,2.18-2.36l6.01,3.63c-1.12,1.9-2.7,3.39-4.74,4.46-2.03,1.07-4.33,1.6-6.9,1.6Z"/>
    <path class="st1" d="M112.72,40.15l4.67-23.44h8.18l-4.67,23.44h-8.18ZM122.63,14.11c-1.44,0-2.59-.4-3.44-1.19-.85-.79-1.28-1.75-1.28-2.88,0-1.33.48-2.44,1.45-3.33.97-.89,2.24-1.34,3.83-1.34,1.44,0,2.6.38,3.46,1.12.87.75,1.3,1.69,1.3,2.81,0,1.41-.49,2.57-1.47,3.46-.98.89-2.26,1.34-3.85,1.34Z"/>
  </g>
  <g>
    <path class="st0" d="M180.96,18.18c-.88-.49-1.94-.74-3.18-.74s-2.35.25-3.33.74-1.82,1.17-2.51,2.03c-.69.87-1.21,1.85-1.56,2.96-.35,1.11-.52,2.29-.52,3.53,0,1.15.24,2.18.71,3.07.48.89,1.15,1.59,2.03,2.08.88.49,1.94.74,3.18.74s2.39-.24,3.35-.74c.97-.49,1.8-1.17,2.49-2.03.69-.87,1.21-1.85,1.56-2.96.35-1.11.52-2.29.52-3.53s-.24-2.21-.71-3.09c-.48-.88-1.15-1.56-2.03-2.05Z"/>
    <path class="st0" d="M149.47,0l-4.12,20.25,8.34-10.37h10.25l-15.3,19.31-2.18,10.97h-5.35l-4.64,23.85,25.88-13.43h39.69l7.51-5.48L221.85,0h-72.38ZM192.6,30.05c-.94,2.21-2.26,4.12-3.96,5.73-1.7,1.62-3.72,2.86-6.06,3.74-2.34.88-4.89,1.32-7.66,1.32-3.14,0-5.86-.58-8.15-1.73-2.29-1.15-4.07-2.75-5.32-4.78-1.25-2.03-1.88-4.38-1.88-7.03s.47-5.13,1.41-7.33c.94-2.21,2.26-4.12,3.96-5.73,1.7-1.61,3.72-2.86,6.06-3.74,2.34-.88,4.89-1.32,7.66-1.32,3.14,0,5.86.58,8.15,1.73,2.29,1.15,4.07,2.75,5.32,4.78,1.25,2.03,1.88,4.38,1.88,7.03s-.47,5.13-1.41,7.33ZM204.75,37.8c-.53.85-1.25,1.53-2.14,2.03-.89.5-1.92.76-3.07.76-1.59,0-2.88-.46-3.89-1.38-1.01-.92-1.51-2.05-1.51-3.37,0-1.61.58-2.94,1.73-3.98s2.58-1.56,4.28-1.56,2.92.45,3.91,1.34c.99.89,1.49,2,1.49,3.33,0,1.04-.27,1.98-.8,2.83ZM205.12,28.56h-7.79l1.77-18.69h11.68l-5.67,18.69Z"/>
  </g>
</svg>