<?xml version="1.0" encoding="UTF-8"?>
<svg id="Capa_1" xmlns="http://www.w3.org/2000/svg" version="1.1" viewBox="0 0 194.12 56">
  <!-- Generator: Adobe Illustrator 29.8.1, SVG Export Plug-In . SVG Version: 2.1.1 Build 2)  -->
  <defs>
    <style>
      .st0 {
        fill: #00aeef;
      }

      .st1 {
        fill: #0058a0;
      }
    </style>
  </defs>
  <polygon class="st0" points="119.22 35.13 123.47 35.13 127.18 17.72 127.1 17.82 123.5 8.64 114.53 8.64 121.16 25.41 119.22 35.13"/>
  <g>
    <path class="st1" d="M11.05,35.66c-1.51,0-2.96-.12-4.35-.36-1.39-.24-2.65-.58-3.78-1.02-1.14-.44-2.11-.93-2.91-1.46l2.95-5.6c.91.56,1.85,1.03,2.82,1.42.97.39,1.96.69,2.97.89,1.01.2,2.02.3,3.03.3s1.78-.09,2.46-.28c.68-.19,1.2-.46,1.55-.81.35-.35.53-.77.53-1.25,0-.53-.23-.95-.7-1.27-.47-.32-1.08-.59-1.84-.81-.76-.23-1.6-.46-2.52-.7-.92-.24-1.84-.53-2.76-.87-.92-.34-1.76-.77-2.52-1.29-.76-.52-1.37-1.18-1.84-1.99-.47-.81-.7-1.8-.7-2.99,0-1.92.52-3.58,1.55-5,1.03-1.41,2.5-2.51,4.41-3.29,1.9-.78,4.16-1.17,6.76-1.17,1.89,0,3.66.2,5.3.59,1.64.39,3.05.95,4.24,1.68l-2.73,5.56c-1.03-.66-2.18-1.15-3.43-1.5-1.25-.34-2.53-.51-3.84-.51-1.01,0-1.87.11-2.59.34-.72.23-1.26.54-1.63.93-.37.39-.55.83-.55,1.31,0,.51.23.92.68,1.25.45.33,1.07.61,1.84.83.77.23,1.61.46,2.54.7.92.24,1.84.52,2.74.83.91.32,1.75.73,2.54,1.25.78.52,1.4,1.17,1.86,1.95.45.78.68,1.75.68,2.91,0,1.89-.52,3.55-1.55,4.96-1.04,1.41-2.51,2.51-4.43,3.29-1.92.78-4.18,1.17-6.78,1.17Z"/>
    <path class="st1" d="M36.9,35.48c-2.2,0-4.11-.38-5.73-1.15-1.63-.77-2.9-1.85-3.8-3.26-.91-1.4-1.36-3.05-1.36-4.94,0-2.27.52-4.3,1.55-6.07,1.03-1.78,2.49-3.19,4.35-4.22,1.87-1.03,4.04-1.55,6.51-1.55,2.09,0,3.89.38,5.39,1.14,1.5.76,2.66,1.81,3.48,3.16.82,1.35,1.23,2.92,1.23,4.71,0,.61-.04,1.19-.11,1.74-.08.56-.18,1.1-.3,1.63h-16.46l.68-3.78h12.45l-2.99,1.1c.2-.98.17-1.81-.09-2.48-.26-.67-.71-1.19-1.32-1.55-.62-.37-1.38-.55-2.29-.55-1.16,0-2.11.29-2.86.87-.74.58-1.3,1.37-1.67,2.37-.37,1-.55,2.08-.55,3.24,0,1.41.39,2.45,1.17,3.12.78.67,1.96,1,3.52,1,.91,0,1.8-.14,2.67-.44.87-.29,1.63-.7,2.29-1.23l2.99,4.5c-1.29.96-2.68,1.64-4.18,2.04-1.5.4-3.02.61-4.56.61Z"/>
    <path class="st1" d="M66.39,14.28c1.74,0,3.22.36,4.43,1.08,1.21.72,2.08,1.78,2.59,3.18.52,1.4.56,3.15.13,5.24l-2.27,11.35h-7.19l2.12-10.67c.28-1.31.19-2.32-.25-3.03-.44-.71-1.26-1.06-2.44-1.06s-2.23.38-3.07,1.14-1.41,1.92-1.74,3.48l-2.04,10.14h-7.19l4.09-20.51h6.81l-1.17,5.75-.91-1.67c.98-1.54,2.2-2.66,3.65-3.37,1.45-.71,2.93-1.06,4.45-1.06Z"/>
    <path class="st1" d="M87.39,35.48c-2.2,0-4.1-.39-5.72-1.17-1.61-.78-2.87-1.87-3.77-3.27-.9-1.4-1.34-3.03-1.34-4.9,0-2.27.54-4.3,1.63-6.07,1.08-1.78,2.59-3.19,4.5-4.22,1.92-1.03,4.11-1.55,6.59-1.55,2.32,0,4.33.49,6.04,1.48,1.7.98,2.93,2.35,3.69,4.09l-6.13,2.91c-.38-.96-.91-1.65-1.61-2.08-.69-.43-1.48-.64-2.37-.64-.96,0-1.82.25-2.59.74-.77.49-1.37,1.15-1.8,1.99s-.64,1.82-.64,2.95.34,2.14,1.02,2.88c.68.73,1.68,1.1,2.99,1.1.93,0,1.77-.21,2.52-.62.74-.42,1.38-1.1,1.91-2.06l5.26,3.18c-.98,1.67-2.37,2.97-4.14,3.9-1.78.93-3.79,1.4-6.04,1.4Z"/>
    <path class="st1" d="M98.63,35.13l4.09-20.51h7.15l-4.09,20.51h-7.15ZM107.3,12.35c-1.26,0-2.27-.35-3.01-1.04-.74-.69-1.12-1.53-1.12-2.52,0-1.16.42-2.13,1.27-2.91.84-.78,1.96-1.17,3.35-1.17,1.26,0,2.27.33,3.03.98.76.66,1.14,1.48,1.14,2.46,0,1.24-.43,2.25-1.29,3.03-.86.78-1.98,1.17-3.37,1.17Z"/>
  </g>
  <g>
    <path class="st0" d="M158.34,15.91c-.77-.43-1.7-.64-2.78-.64s-2.06.21-2.91.64-1.59,1.02-2.19,1.78c-.61.76-1.06,1.62-1.36,2.59-.3.97-.45,2-.45,3.08,0,1.01.21,1.91.62,2.69.42.78,1.01,1.39,1.78,1.82.77.43,1.7.64,2.78.64s2.09-.21,2.93-.64c.85-.43,1.57-1.02,2.18-1.78.61-.76,1.06-1.62,1.36-2.59.3-.97.45-2,.45-3.08s-.21-1.94-.62-2.71c-.42-.77-1.01-1.37-1.78-1.8Z"/>
    <path class="st0" d="M130.79,0l-3.61,17.72,7.3-9.08h8.97l-13.38,16.9-1.91,9.6h-4.68l-4.06,20.87,22.64-11.75h34.73l6.57-4.8L194.12,0h-63.33ZM168.52,26.3c-.82,1.93-1.97,3.6-3.46,5.02-1.49,1.41-3.26,2.5-5.3,3.27-2.04.77-4.28,1.15-6.7,1.15-2.75,0-5.13-.5-7.13-1.51-2.01-1.01-3.56-2.4-4.66-4.18-1.1-1.78-1.65-3.83-1.65-6.15s.41-4.49,1.23-6.42c.82-1.93,1.97-3.6,3.46-5.01,1.49-1.41,3.26-2.5,5.3-3.27,2.04-.77,4.28-1.15,6.7-1.15,2.75,0,5.13.51,7.13,1.51,2.01,1.01,3.56,2.4,4.66,4.18,1.1,1.78,1.65,3.83,1.65,6.15s-.41,4.49-1.23,6.42ZM179.16,33.07c-.47.74-1.09,1.34-1.87,1.78-.78.44-1.68.66-2.69.66-1.39,0-2.52-.4-3.41-1.21-.88-.81-1.32-1.79-1.32-2.95,0-1.41.5-2.57,1.51-3.48s2.26-1.36,3.75-1.36,2.55.39,3.43,1.17c.87.78,1.31,1.75,1.31,2.91,0,.91-.23,1.74-.7,2.48ZM179.48,24.99h-6.81l1.55-16.35h10.22l-4.96,16.35Z"/>
  </g>
</svg>