<?xml version="1.0" encoding="UTF-8"?>
<svg version="1.1" xmlns="http://www.w3.org/2000/svg" width="196" height="56">
<path d="M0 0 C17.16 0 34.32 0 52 0 C52 10 52 10 50 13 C50 14.32 50 15.64 50 17 C49.34 17 48.68 17 48 17 C48.20625 17.5775 48.4125 18.155 48.625 18.75 C49.09888546 21.59331274 48.28589005 22.46495962 47 25 C46.57848115 26.57158878 46.2031166 28.15629082 45.875 29.75 C45.70742187 30.54921875 45.53984375 31.3484375 45.3671875 32.171875 C45.18542969 33.07679687 45.18542969 33.07679687 45 34 C43.02 34.495 43.02 34.495 41 35 C41 35.66 41 36.32 41 37 C40.1121582 36.98428955 39.22431641 36.9685791 38.30957031 36.95239258 C35.00710179 36.90118314 31.7050568 36.86361144 28.40234375 36.83520508 C26.97454154 36.82014319 25.5467854 36.79968938 24.11914062 36.77368164 C22.06368627 36.73718158 20.00884495 36.72024834 17.953125 36.70703125 C16.71723633 36.6913208 15.48134766 36.67561035 14.20800781 36.65942383 C10.74372637 37.02720713 9.5344533 37.71463481 7 40 C4.78125 40.87890625 4.78125 40.87890625 2.5 41.5625 C0.1335721 42.27972215 -1.92325465 42.95776142 -4.09375 44.15234375 C-6 45 -6 45 -9 44 C-8.01 39.05 -7.02 34.1 -6 29 C-6.99 29 -7.98 29 -9 29 C-9.33 28.01 -9.66 27.02 -10 26 C-9.34 26 -8.68 26 -8 26 C-8.47255318 21.17995754 -9.31797564 18.02303653 -12 14 C-12.96398647 11.1080406 -13 9.0005625 -13 6 C-7.62694301 5.64766839 -7.62694301 5.64766839 -5 6 C-3 8 -3 8 -2 10 C-2 8.35 -2 6.7 -2 5 C-1.34 5 -0.68 5 0 5 C0 3.35 0 1.7 0 0 Z M12.3125 10.4375 C10.76855725 12.08091416 10.76855725 12.08091416 10 15 C9.67 15 9.34 15 9 15 C8.48065482 20.82600938 8.48065482 20.82600938 10.875 26 C15.2519135 28.80122464 18.94198488 28.44196249 24 28 C24.33 27.34 24.66 26.68 25 26 C25.639375 25.87625 26.27875 25.7525 26.9375 25.625 C29.18762386 25.19642304 29.18762386 25.19642304 30.1875 23 C30.455625 22.34 30.72375 21.68 31 21 C31.33 20.67 31.66 20.34 32 20 C32.52326787 15.26938803 32.52326787 15.26938803 30.5625 11.1875 C30.046875 10.795625 29.53125 10.40375 29 10 C28.67 9.34 28.34 8.68 28 8 C22.04783518 6.01594506 17.08907161 6.36856863 12.3125 10.4375 Z M5 8 C4.34 8.66 3.68 9.32 3 10 C2 11 1 12 0 13 C0.33 13.66 0.66 14.32 1 15 C0.01 15.33 -0.98 15.66 -2 16 C-2.33 18.64 -2.66 21.28 -3 24 C-2.01 23.67 -1.02 23.34 0 23 C0.0825 22.05125 0.165 21.1025 0.25 20.125 C0.4975 19.09375 0.745 18.0625 1 17 C3 15.8125 3 15.8125 5 15 C5.33 14.01 5.66 13.02 6 12 C7.5625 10.3125 7.5625 10.3125 9 9 C7.10820797 8.3185177 7.10820797 8.3185177 5 8 Z M37 8 C35.6728739 11.9813783 35.93084087 15.85045227 36 20 C37.32 20 38.64 20 40 20 C40.185625 18.8553125 40.185625 18.8553125 40.375 17.6875 C41 15 41 15 43 12 C42.69159401 9.84725052 42.69159401 9.84725052 42 8 C40.35 8 38.7 8 37 8 Z M35 22 C33.7763932 24.0745356 33.7763932 24.0745356 34 27 C34 27.33 34 27.66 34 28 C35.65 28 37.3 28 39 28 C39.33 26.35 39.66 24.7 40 23 C38.35 22.67 36.7 22.34 35 22 Z M33 24 C34 26 34 26 34 26 Z M-2 24 C-2.99 24.495 -2.99 24.495 -4 25 C-4 25.99 -4 26.98 -4 28 C-3.01 28 -2.02 28 -1 28 C-1.33 26.68 -1.66 25.36 -2 24 Z " fill="#00A0D9" transform="translate(124,6)"/>
<path d="M0 0 C2.10388569 -0.05402274 4.20816714 -0.09280256 6.3125 -0.125 C8.07013672 -0.15980469 8.07013672 -0.15980469 9.86328125 -0.1953125 C13 0 13 0 16 2 C15.34 3.65 14.68 5.3 14 7 C13.030625 6.979375 12.06125 6.95875 11.0625 6.9375 C8.12534105 6.64381501 8.12534105 6.64381501 7 8 C7.94875 8.0825 8.8975 8.165 9.875 8.25 C13 9 13 9 14.375 11.0625 C14.58125 11.701875 14.7875 12.34125 15 13 C15.86625 11.329375 15.86625 11.329375 16.75 9.625 C18.35598603 6.52774123 19.66829681 5.15626193 23 4 C25.54296875 3.953125 25.54296875 3.953125 28.1875 4.25 C29.06792969 4.33765625 29.94835938 4.4253125 30.85546875 4.515625 C31.56316406 4.67546875 32.27085938 4.8353125 33 5 C34 7 34 7 35 10 C35.495 10.99 35.495 10.99 36 12 C36.33 9.36 36.66 6.72 37 4 C42.7090225 3.76697867 47.66197132 3.82121278 53 6 C54.3125 8.0625 54.3125 8.0625 55 10 C55.66 10.33 56.32 10.66 57 11 C55 17 55 17 53 23 C50.69 23.33 48.38 23.66 46 24 C46.66 19.71 47.32 15.42 48 11 C46.02 11.99 46.02 11.99 44 13 C43.3006486 15.18541552 43.3006486 15.18541552 43.25 17.625 C43.1675 19.06875 43.085 20.5125 43 22 C40.03 22.66 37.06 23.32 34 24 C34 21.36 34 18.72 34 16 C31.69 16.33 29.38 16.66 27 17 C28.65 17 30.3 17 32 17 C32.495 19.97 32.495 19.97 33 23 C31.10489301 23.08160748 29.20875496 23.13946459 27.3125 23.1875 C25.72888672 23.23970703 25.72888672 23.23970703 24.11328125 23.29296875 C21 23 21 23 18.35546875 21.36328125 C17.18951172 20.68845703 17.18951172 20.68845703 16 20 C14.01186631 20.71160837 14.01186631 20.71160837 12 22 C9.8048548 22.46341954 7.59367015 22.85444906 5.375 23.1875 C3.65410156 23.45626953 3.65410156 23.45626953 1.8984375 23.73046875 C-1 24 -1 24 -3 23 C-4.125 20.9375 -4.125 20.9375 -5 19 C-4.484375 18.443125 -3.96875 17.88625 -3.4375 17.3125 C-1.73390225 15.11942123 -1.73390225 15.11942123 -2.3125 12.6875 C-2.539375 11.800625 -2.76625 10.91375 -3 10 C-3.03824623 7.66698014 -3.04574284 5.33288492 -3 3 C-2.01 2.67 -1.02 2.34 0 2 C0 1.34 0 0.68 0 0 Z M24 10 C23.67 10.66 23.34 11.32 23 12 C24.65 12 26.3 12 28 12 C27.67 11.34 27.34 10.68 27 10 C26.01 10 25.02 10 24 10 Z M2 14 C0.1645201 15.33378575 0.1645201 15.33378575 -1 17 C1.31 17 3.62 17 6 17 C6.33 16.34 6.66 15.68 7 15 C4.65466049 14.23043864 4.65466049 14.23043864 2 14 Z M15 16 C16 18 16 18 16 18 Z " fill="#004D8D" transform="translate(24,12)"/>
<path d="M0 0 C2.875 -0.125 2.875 -0.125 6 0 C6.66 0.66 7.32 1.32 8 2 C7.79404422 4.72891413 7.43963236 7.30468383 7 10 C6.85175781 11.093125 6.70351562 12.18625 6.55078125 13.3125 C6.38964844 14.4675 6.22851562 15.6225 6.0625 16.8125 C5.90910156 17.91207031 5.75570312 19.01164062 5.59765625 20.14453125 C5 23 5 23 3 26 C-0.625 26.6875 -0.625 26.6875 -4 27 C-4 25.68 -4 24.36 -4 23 C-4.33 23.99 -4.66 24.98 -5 26 C-8.0473861 27.26306134 -10.34810642 26.93769385 -13.5 26.1875 C-14.2528125 26.01605469 -15.005625 25.84460938 -15.78125 25.66796875 C-18 25 -18 25 -22 23 C-21.67 19.04 -21.34 15.08 -21 11 C-19.35 10.34 -17.7 9.68 -16 9 C-15.34 8.67 -14.68 8.34 -14 8 C-12.29297265 7.93003986 -10.58331997 7.91559846 -8.875 7.9375 C-7.96492188 7.94652344 -7.05484375 7.95554687 -6.1171875 7.96484375 C-5.06917969 7.98224609 -5.06917969 7.98224609 -4 8 C-3.34 9.32 -2.68 10.64 -2 12 C-1.66269158 10.56342755 -1.33030409 9.12569907 -1 7.6875 C-0.814375 6.88699219 -0.62875 6.08648437 -0.4375 5.26171875 C0.09495823 2.89304062 0.09495823 2.89304062 0 0 Z M-13 14 C-13.33 15.32 -13.66 16.64 -14 18 C-11.92446352 18.5534764 -10.15634036 19 -8 19 C-5.99787771 19.32033957 -3.99760305 19.65259077 -2 20 C-2 18.35 -2 16.7 -2 15 C-5 13.66666667 -5 13.66666667 -8 15 C-10.6875 14.5625 -10.6875 14.5625 -13 14 Z " fill="#004E8E" transform="translate(102,9)"/>
<path d="M0 0 C7.31376975 -0.48758465 7.31376975 -0.48758465 10.375 1.6875 C12.04184731 4.05955194 13.08507332 6.25521995 14 9 C13.01 9.495 13.01 9.495 12 10 C11.59270772 12.32156597 11.25561323 14.6568787 11 17 C11.66 17 12.32 17 13 17 C13 15.02 13 13.04 13 11 C13.99 11 14.98 11 16 11 C15.69106068 12.6256807 15.3777305 14.25052748 15.0625 15.875 C14.88847656 16.77992187 14.71445313 17.68484375 14.53515625 18.6171875 C14 21 14 21 13 23 C11.35 23 9.7 23 8 23 C7.67 23.66 7.34 24.32 7 25 C7 24.34 7 23.68 7 23 C6.01 23 5.02 23 4 23 C3.67 22.01 3.34 21.02 3 20 C3.66 20 4.32 20 5 20 C4.52744682 15.17995754 3.68202436 12.02303653 1 8 C0.03601353 5.1080406 0 3.0005625 0 0 Z M11 18 C10.01 18.495 10.01 18.495 9 19 C9 19.99 9 20.98 9 22 C9.99 22 10.98 22 12 22 C11.67 20.68 11.34 19.36 11 18 Z " fill="#0085B2" transform="translate(111,12)"/>
<path d="M0 0 C2.64 0 5.28 0 8 0 C8.66666667 1.33333333 9.33333333 2.66666667 10 4 C7.65625 10.5625 7.65625 10.5625 4 13 C1.03923709 12.64111965 0.15341979 12.15341979 -2 10 C-2.26991906 7.31160615 -2.08737357 4.70858064 -2 2 C-1.34 1.67 -0.68 1.34 0 1 C0 0.67 0 0.34 0 0 Z " fill="#009DD3" transform="translate(141,17)"/>
<path d="M0 0 C-0.33 2.64 -0.66 5.28 -1 8 C-4.96 8 -8.92 8 -13 8 C-13 7.01 -13 6.02 -13 5 C-11.35 4.67 -9.7 4.34 -8 4 C-8.66 3.67 -9.32 3.34 -10 3 C-10 2.01 -10 1.02 -10 0 C-5.49548227 -1.66471307 -4.20870316 -2.10435158 0 0 Z " fill="#005298" transform="translate(59,19)"/>
<path d="M0 0 C2.875 -0.125 2.875 -0.125 6 0 C6.66 0.66 7.32 1.32 8 2 C7.96712417 4.72869407 7.43602229 7.2966618 7 10 C4.36 9.67 1.72 9.34 -1 9 C-0.835 8.071875 -0.67 7.14375 -0.5 6.1875 C0.07748388 3.04378647 0.07748388 3.04378647 0 0 Z " fill="#004F90" transform="translate(102,9)"/>
<path d="M0 0 C0.33 0 0.66 0 1 0 C1 1.65 1 3.3 1 5 C1.66 5.33 2.32 5.66 3 6 C1.35 6.66 -0.3 7.32 -2 8 C-2.99 7.01 -3.98 6.02 -5 5 C-4 3 -4 3 -1 2 C-0.67 1.34 -0.34 0.68 0 0 Z " fill="#008AB7" transform="translate(159,22)"/>
<path d="M0 0 C2.64 0 5.28 0 8 0 C8 1.65 8 3.3 8 5 C7.67 4.34 7.34 3.68 7 3 C4.69 3.66 2.38 4.32 0 5 C0 3.35 0 1.7 0 0 Z " fill="#008BB3" transform="translate(141,17)"/>
<path d="M0 0 C3 3 3 3 3.1875 5.6875 C3.125625 6.450625 3.06375 7.21375 3 8 C1.68 8.33 0.36 8.66 -1 9 C-0.67 6.03 -0.34 3.06 0 0 Z " fill="#00BFF6" transform="translate(117,25)"/>
<path d="M0 0 C0.99 0.33 1.98 0.66 3 1 C2.67 3.31 2.34 5.62 2 8 C1.34 6.68 0.68 5.36 0 4 C-0.99 4.66 -1.98 5.32 -3 6 C-2.42655063 3.13275314 -2.1385485 2.1385485 0 0 Z " fill="#00BCF3" transform="translate(130,19)"/>
<path d="M0 0 C0.33 0 0.66 0 1 0 C1.05447047 1.41623216 1.09300508 2.83308191 1.125 4.25 C1.14820313 5.03890625 1.17140625 5.8278125 1.1953125 6.640625 C0.9828378 9.20731941 0.28654105 10.7916067 -1 13 C-1.33 10.69 -1.66 8.38 -2 6 C-1.34 6 -0.68 6 0 6 C0 4.02 0 2.04 0 0 Z " fill="#00BCF4" transform="translate(159,13)"/>
<path d="M0 0 C0.4125 0.639375 0.825 1.27875 1.25 1.9375 C3.17810487 4.20990931 4.11424181 4.60196439 7 5 C6.67 5.66 6.34 6.32 6 7 C3.69 6.67 1.38 6.34 -1 6 C-0.67 4.02 -0.34 2.04 0 0 Z " fill="#001E32" transform="translate(102,12)"/>
<path d="M0 0 C0.99 0.495 0.99 0.495 2 1 C1.01 1.495 1.01 1.495 0 2 C0 1.34 0 0.68 0 0 Z " fill="#000000" transform="translate(19,27)"/>
<path d="M0 0 C0.66 0 1.32 0 2 0 C1.67 0.66 1.34 1.32 1 2 C0.67 1.34 0.34 0.68 0 0 Z " fill="#000000" transform="translate(77,17)"/>
<path d="M0 0 C0.66 0 1.32 0 2 0 C1.67 0.66 1.34 1.32 1 2 C0.67 1.34 0.34 0.68 0 0 Z " fill="#000000" transform="translate(39,12)"/>
<path d="M0 0 C0.66 0 1.32 0 2 0 C1.67 0.66 1.34 1.32 1 2 C0.67 1.34 0.34 0.68 0 0 Z " fill="#000000" transform="translate(109,9)"/>
<path d="M0 0 C2 1 2 1 2 1 Z " fill="#000000" transform="translate(138,32)"/>
<path d="M0 0 C2 1 2 1 2 1 Z " fill="#000000" transform="translate(136,31)"/>
<path d="" fill="#000000" transform="translate(0,0)"/>
<path d="" fill="#000000" transform="translate(0,0)"/>
<path d="" fill="#000000" transform="translate(0,0)"/>
<path d="M0 0 C2 1 2 1 2 1 Z " fill="#000000" transform="translate(84,17)"/>
<path d="" fill="#000000" transform="translate(0,0)"/>
<path d="" fill="#000000" transform="translate(0,0)"/>
<path d="" fill="#000000" transform="translate(0,0)"/>
<path d="" fill="#000000" transform="translate(0,0)"/>
<path d="" fill="#000000" transform="translate(0,0)"/>
<path d="" fill="#000000" transform="translate(0,0)"/>
<path d="" fill="#000000" transform="translate(0,0)"/>
<path d="" fill="#000000" transform="translate(0,0)"/>
<path d="" fill="#000000" transform="translate(0,0)"/>
<path d="" fill="#000000" transform="translate(0,0)"/>
<path d="" fill="#000000" transform="translate(0,0)"/>
<path d="" fill="#000000" transform="translate(0,0)"/>
<path d="" fill="#000000" transform="translate(0,0)"/>
<path d="" fill="#000000" transform="translate(0,0)"/>
<path d="" fill="#000000" transform="translate(0,0)"/>
<path d="" fill="#000000" transform="translate(0,0)"/>
<path d="" fill="#000000" transform="translate(0,0)"/>
<path d="" fill="#000000" transform="translate(0,0)"/>
<path d="" fill="#000000" transform="translate(0,0)"/>
<path d="" fill="#000000" transform="translate(0,0)"/>
<path d="" fill="#000000" transform="translate(0,0)"/>
<path d="" fill="#000000" transform="translate(0,0)"/>
<path d="" fill="#000000" transform="translate(0,0)"/>
<path d="" fill="#000000" transform="translate(0,0)"/>
<path d="" fill="#000000" transform="translate(0,0)"/>
<path d="" fill="#000000" transform="translate(0,0)"/>
<path d="" fill="#000000" transform="translate(0,0)"/>
<path d="" fill="#000000" transform="translate(0,0)"/>
<path d="" fill="#000000" transform="translate(0,0)"/>
<path d="" fill="#000000" transform="translate(0,0)"/>
<path d="" fill="#000000" transform="translate(0,0)"/>
<path d="" fill="#000000" transform="translate(0,0)"/>
<path d="" fill="#000000" transform="translate(0,0)"/>
<path d="" fill="#000000" transform="translate(0,0)"/>
<path d="" fill="#000000" transform="translate(0,0)"/>
<path d="" fill="#000000" transform="translate(0,0)"/>
<path d="" fill="#000000" transform="translate(0,0)"/>
<path d="" fill="#000000" transform="translate(0,0)"/>
<path d="" fill="#000000" transform="translate(0,0)"/>
<path d="" fill="#000000" transform="translate(0,0)"/>
<path d="" fill="#000000" transform="translate(0,0)"/>
<path d="" fill="#000000" transform="translate(0,0)"/>
<path d="" fill="#000000" transform="translate(0,0)"/>
<path d="" fill="#000000" transform="translate(0,0)"/>
<path d="" fill="#000000" transform="translate(0,0)"/>
<path d="" fill="#000000" transform="translate(0,0)"/>
<path d="" fill="#000000" transform="translate(0,0)"/>
<path d="" fill="#000000" transform="translate(0,0)"/>
<path d="" fill="#000000" transform="translate(0,0)"/>
<path d="" fill="#000000" transform="translate(0,0)"/>
<path d="" fill="#000000" transform="translate(0,0)"/>
<path d="" fill="#000000" transform="translate(0,0)"/>
<path d="" fill="#000000" transform="translate(0,0)"/>
<path d="" fill="#000000" transform="translate(0,0)"/>
<path d="" fill="#000000" transform="translate(0,0)"/>
<path d="" fill="#000000" transform="translate(0,0)"/>
<path d="" fill="#000000" transform="translate(0,0)"/>
<path d="" fill="#000000" transform="translate(0,0)"/>
<path d="" fill="#000000" transform="translate(0,0)"/>
<path d="" fill="#000000" transform="translate(0,0)"/>
<path d="" fill="#000000" transform="translate(0,0)"/>
<path d="" fill="#000000" transform="translate(0,0)"/>
<path d="" fill="#000000" transform="translate(0,0)"/>
<path d="" fill="#000000" transform="translate(0,0)"/>
<path d="" fill="#000000" transform="translate(0,0)"/>
<path d="" fill="#000000" transform="translate(0,0)"/>
<path d="" fill="#000000" transform="translate(0,0)"/>
<path d="" fill="#000000" transform="translate(0,0)"/>
<path d="" fill="#000000" transform="translate(0,0)"/>
<path d="" fill="#000000" transform="translate(0,0)"/>
<path d="" fill="#000000" transform="translate(0,0)"/>
<path d="" fill="#000000" transform="translate(0,0)"/>
<path d="" fill="#000000" transform="translate(0,0)"/>
<path d="" fill="#000000" transform="translate(0,0)"/>
<path d="" fill="#000000" transform="translate(0,0)"/>
<path d="" fill="#000000" transform="translate(0,0)"/>
<path d="" fill="#000000" transform="translate(0,0)"/>
<path d="" fill="#000000" transform="translate(0,0)"/>
<path d="" fill="#000000" transform="translate(0,0)"/>
<path d="" fill="#000000" transform="translate(0,0)"/>
<path d="" fill="#000000" transform="translate(0,0)"/>
<path d="" fill="#000000" transform="translate(0,0)"/>
<path d="" fill="#000000" transform="translate(0,0)"/>
<path d="" fill="#000000" transform="translate(0,0)"/>
<path d="" fill="#000000" transform="translate(0,0)"/>
<path d="" fill="#000000" transform="translate(0,0)"/>
<path d="" fill="#000000" transform="translate(0,0)"/>
<path d="" fill="#000000" transform="translate(0,0)"/>
<path d="" fill="#000000" transform="translate(0,0)"/>
<path d="" fill="#000000" transform="translate(0,0)"/>
<path d="" fill="#000000" transform="translate(0,0)"/>
<path d="" fill="#000000" transform="translate(0,0)"/>
<path d="" fill="#000000" transform="translate(0,0)"/>
<path d="" fill="#000000" transform="translate(0,0)"/>
<path d="" fill="#000000" transform="translate(0,0)"/>
</svg>
